<svg xmlns="http://www.w3.org/2000/svg" width="260" height="260" viewBox="0 0 260 260"><circle cx="203.2" cy="20.8" r="1.29" fill="#3D2F21" fill-opacity="0.069"/><circle cx="127.5" cy="34.3" r="1.22" fill="#3D2F21" fill-opacity="0.056"/><circle cx="206.6" cy="219.7" r="0.59" fill="#3D2F21" fill-opacity="0.09"/><circle cx="48.9" cy="68.8" r="1.01" fill="#3D2F21" fill-opacity="0.075"/><circle cx="66.0" cy="228.9" r="1.39" fill="#3D2F21" fill-opacity="0.051"/><circle cx="164.1" cy="19.5" r="0.52" fill="#3D2F21" fill-opacity="0.05"/><circle cx="252.2" cy="130.1" r="0.67" fill="#3D2F21" fill-opacity="0.074"/><circle cx="42.9" cy="230.1" r="1.0" fill="#3D2F21" fill-opacity="0.086"/><circle cx="121.2" cy="181.0" r="1.17" fill="#3D2F21" fill-opacity="0.046"/><circle cx="169.9" cy="120.9" r="1.17" fill="#3D2F21" fill-opacity="0.052"/><circle cx="29.0" cy="219.1" r="0.71" fill="#3D2F21" fill-opacity="0.08"/><circle cx="71.3" cy="130.4" r="0.54" fill="#3D2F21" fill-opacity="0.079"/><circle cx="117.9" cy="28.4" r="1.32" fill="#3D2F21" fill-opacity="0.068"/><circle cx="44.6" cy="59.2" r="1.22" fill="#3D2F21" fill-opacity="0.05"/><circle cx="134.7" cy="73.3" r="0.72" fill="#3D2F21" fill-opacity="0.07"/><circle cx="223.4" cy="232.2" r="1.4" fill="#3D2F21" fill-opacity="0.042"/><circle cx="136.2" cy="200.1" r="1.01" fill="#3D2F21" fill-opacity="0.083"/><circle cx="255.4" cy="14.9" r="0.84" fill="#3D2F21" fill-opacity="0.056"/><circle cx="200.1" cy="13.3" r="1.06" fill="#3D2F21" fill-opacity="0.086"/><circle cx="11.7" cy="119.3" r="1.21" fill="#3D2F21" fill-opacity="0.086"/><circle cx="170.5" cy="65.4" r="0.57" fill="#3D2F21" fill-opacity="0.081"/><circle cx="26.0" cy="127.4" r="0.63" fill="#3D2F21" fill-opacity="0.08"/><circle cx="105.2" cy="117.6" r="0.54" fill="#3D2F21" fill-opacity="0.089"/><circle cx="160.0" cy="27.7" r="0.78" fill="#3D2F21" fill-opacity="0.063"/><circle cx="258.1" cy="222.8" r="1.02" fill="#3D2F21" fill-opacity="0.088"/><circle cx="156.4" cy="58.6" r="0.53" fill="#3D2F21" fill-opacity="0.064"/><circle cx="223.2" cy="101.5" r="0.91" fill="#3D2F21" fill-opacity="0.057"/><circle cx="159.4" cy="90.8" r="1.21" fill="#3D2F21" fill-opacity="0.062"/><circle cx="92.0" cy="2.0" r="1.15" fill="#3D2F21" fill-opacity="0.086"/><circle cx="207.9" cy="128.1" r="1.16" fill="#3D2F21" fill-opacity="0.054"/><circle cx="103.9" cy="187.0" r="0.8" fill="#3D2F21" fill-opacity="0.042"/><circle cx="97.6" cy="69.1" r="1.18" fill="#3D2F21" fill-opacity="0.056"/><circle cx="218.3" cy="175.8" r="1.11" fill="#3D2F21" fill-opacity="0.041"/><circle cx="200.2" cy="189.8" r="1.04" fill="#3D2F21" fill-opacity="0.069"/><circle cx="76.2" cy="132.6" r="1.37" fill="#3D2F21" fill-opacity="0.076"/><circle cx="44.0" cy="187.9" r="1.36" fill="#3D2F21" fill-opacity="0.083"/><circle cx="197.2" cy="28.3" r="0.74" fill="#3D2F21" fill-opacity="0.056"/><circle cx="100.5" cy="161.5" r="1.29" fill="#3D2F21" fill-opacity="0.047"/><circle cx="227.7" cy="121.9" r="1.19" fill="#3D2F21" fill-opacity="0.049"/><circle cx="201.1" cy="68.3" r="0.62" fill="#3D2F21" fill-opacity="0.078"/><circle cx="110.0" cy="196.3" r="0.64" fill="#3D2F21" fill-opacity="0.086"/><circle cx="102.9" cy="208.8" r="0.89" fill="#3D2F21" fill-opacity="0.071"/><circle cx="18.5" cy="38.2" r="1.05" fill="#3D2F21" fill-opacity="0.059"/><circle cx="235.2" cy="148.0" r="0.74" fill="#3D2F21" fill-opacity="0.05"/><circle cx="224.1" cy="182.7" r="1.27" fill="#3D2F21" fill-opacity="0.058"/><circle cx="34.6" cy="102.3" r="0.65" fill="#3D2F21" fill-opacity="0.085"/><circle cx="38.8" cy="133.4" r="1.08" fill="#3D2F21" fill-opacity="0.043"/><circle cx="139.1" cy="111.3" r="1.36" fill="#3D2F21" fill-opacity="0.058"/><circle cx="109.5" cy="206.9" r="1.31" fill="#3D2F21" fill-opacity="0.052"/><circle cx="57.0" cy="101.0" r="1.34" fill="#3D2F21" fill-opacity="0.076"/><circle cx="125.2" cy="258.6" r="1.1" fill="#3D2F21" fill-opacity="0.048"/><circle cx="1.8" cy="73.2" r="1.11" fill="#3D2F21" fill-opacity="0.041"/><circle cx="145.4" cy="129.8" r="0.78" fill="#3D2F21" fill-opacity="0.071"/><circle cx="184.8" cy="79.3" r="0.87" fill="#3D2F21" fill-opacity="0.09"/><circle cx="166.6" cy="78.2" r="0.6" fill="#3D2F21" fill-opacity="0.054"/><circle cx="75.7" cy="246.7" r="1.08" fill="#3D2F21" fill-opacity="0.063"/><circle cx="221.6" cy="18.8" r="1.16" fill="#3D2F21" fill-opacity="0.082"/><circle cx="64.2" cy="44.4" r="0.66" fill="#3D2F21" fill-opacity="0.071"/><circle cx="54.5" cy="247.2" r="0.9" fill="#3D2F21" fill-opacity="0.044"/><circle cx="64.3" cy="23.2" r="0.72" fill="#3D2F21" fill-opacity="0.04"/><circle cx="241.6" cy="215.2" r="0.7" fill="#3D2F21" fill-opacity="0.054"/><circle cx="114.1" cy="170.9" r="1.05" fill="#3D2F21" fill-opacity="0.066"/><circle cx="96.4" cy="203.5" r="0.96" fill="#3D2F21" fill-opacity="0.07"/><circle cx="195.0" cy="72.8" r="0.82" fill="#3D2F21" fill-opacity="0.085"/><circle cx="193.9" cy="26.7" r="0.64" fill="#3D2F21" fill-opacity="0.086"/><circle cx="161.9" cy="105.0" r="0.57" fill="#3D2F21" fill-opacity="0.087"/><circle cx="113.3" cy="230.0" r="1.37" fill="#3D2F21" fill-opacity="0.078"/><circle cx="80.1" cy="115.6" r="0.96" fill="#3D2F21" fill-opacity="0.051"/><circle cx="230.2" cy="184.4" r="0.96" fill="#3D2F21" fill-opacity="0.07"/><circle cx="29.2" cy="248.0" r="0.95" fill="#3D2F21" fill-opacity="0.078"/><circle cx="51.8" cy="27.1" r="0.73" fill="#3D2F21" fill-opacity="0.07"/><circle cx="121.1" cy="49.3" r="0.78" fill="#3D2F21" fill-opacity="0.051"/><circle cx="59.0" cy="76.8" r="0.58" fill="#3D2F21" fill-opacity="0.067"/><circle cx="232.3" cy="148.2" r="1.03" fill="#3D2F21" fill-opacity="0.068"/><circle cx="9.5" cy="140.9" r="0.69" fill="#3D2F21" fill-opacity="0.05"/><circle cx="48.5" cy="210.8" r="0.65" fill="#3D2F21" fill-opacity="0.086"/><circle cx="202.6" cy="114.2" r="0.72" fill="#3D2F21" fill-opacity="0.085"/><circle cx="96.2" cy="198.8" r="0.51" fill="#3D2F21" fill-opacity="0.066"/><circle cx="26.8" cy="106.7" r="0.93" fill="#3D2F21" fill-opacity="0.042"/><circle cx="46.3" cy="118.9" r="1.28" fill="#3D2F21" fill-opacity="0.07"/><circle cx="218.1" cy="24.4" r="0.97" fill="#3D2F21" fill-opacity="0.069"/><circle cx="100.8" cy="101.7" r="0.82" fill="#3D2F21" fill-opacity="0.076"/><circle cx="42.3" cy="258.2" r="0.98" fill="#3D2F21" fill-opacity="0.074"/><circle cx="88.9" cy="60.3" r="1.14" fill="#3D2F21" fill-opacity="0.082"/><circle cx="24.5" cy="9.3" r="1.1" fill="#3D2F21" fill-opacity="0.068"/><circle cx="17.3" cy="116.1" r="0.73" fill="#3D2F21" fill-opacity="0.068"/><circle cx="233.4" cy="85.9" r="1.11" fill="#3D2F21" fill-opacity="0.052"/><circle cx="16.1" cy="194.2" r="0.66" fill="#3D2F21" fill-opacity="0.08"/><circle cx="199.7" cy="125.8" r="1.29" fill="#3D2F21" fill-opacity="0.073"/><circle cx="126.9" cy="135.0" r="1.37" fill="#3D2F21" fill-opacity="0.055"/><circle cx="158.8" cy="98.8" r="0.58" fill="#3D2F21" fill-opacity="0.061"/><circle cx="1.3" cy="55.0" r="0.51" fill="#3D2F21" fill-opacity="0.082"/><circle cx="210.7" cy="154.2" r="1.14" fill="#3D2F21" fill-opacity="0.075"/><circle cx="187.2" cy="18.8" r="0.68" fill="#3D2F21" fill-opacity="0.045"/><circle cx="147.4" cy="58.0" r="0.62" fill="#3D2F21" fill-opacity="0.056"/><circle cx="176.5" cy="1.5" r="1.12" fill="#3D2F21" fill-opacity="0.06"/><circle cx="144.3" cy="223.8" r="0.5" fill="#3D2F21" fill-opacity="0.045"/><circle cx="125.2" cy="3.9" r="0.69" fill="#3D2F21" fill-opacity="0.09"/><circle cx="30.1" cy="115.4" r="0.92" fill="#3D2F21" fill-opacity="0.061"/><circle cx="243.2" cy="67.7" r="1.05" fill="#3D2F21" fill-opacity="0.079"/><circle cx="9.2" cy="97.0" r="0.54" fill="#3D2F21" fill-opacity="0.08"/><circle cx="101.1" cy="16.8" r="1.39" fill="#3D2F21" fill-opacity="0.057"/><circle cx="43.4" cy="259.4" r="0.64" fill="#3D2F21" fill-opacity="0.066"/><circle cx="72.7" cy="52.9" r="0.8" fill="#3D2F21" fill-opacity="0.044"/><circle cx="35.7" cy="244.1" r="1.01" fill="#3D2F21" fill-opacity="0.06"/><circle cx="129.4" cy="193.9" r="0.86" fill="#3D2F21" fill-opacity="0.083"/><circle cx="198.8" cy="1.0" r="1.24" fill="#3D2F21" fill-opacity="0.063"/><circle cx="206.6" cy="244.9" r="0.54" fill="#3D2F21" fill-opacity="0.058"/><circle cx="34.2" cy="232.5" r="0.82" fill="#3D2F21" fill-opacity="0.064"/><circle cx="87.5" cy="28.5" r="0.84" fill="#3D2F21" fill-opacity="0.077"/><circle cx="181.6" cy="180.3" r="0.59" fill="#3D2F21" fill-opacity="0.072"/><circle cx="198.8" cy="76.9" r="0.6" fill="#3D2F21" fill-opacity="0.054"/><circle cx="18.4" cy="105.1" r="0.87" fill="#3D2F21" fill-opacity="0.072"/><circle cx="57.7" cy="176.0" r="0.51" fill="#3D2F21" fill-opacity="0.049"/><circle cx="129.2" cy="49.9" r="1.11" fill="#3D2F21" fill-opacity="0.047"/><circle cx="56.6" cy="127.0" r="0.66" fill="#3D2F21" fill-opacity="0.068"/><circle cx="213.6" cy="34.8" r="0.58" fill="#3D2F21" fill-opacity="0.045"/><circle cx="154.3" cy="83.3" r="0.93" fill="#3D2F21" fill-opacity="0.066"/><circle cx="196.6" cy="14.9" r="0.92" fill="#3D2F21" fill-opacity="0.072"/><circle cx="171.5" cy="243.8" r="1.1" fill="#3D2F21" fill-opacity="0.088"/></svg>